PathFileType	4	(X/Y/Z)	/Users/itak/Documents/Research/Walk-IL/dataset/trc/00429_00167.trc
DataRate	CameraRate	NumFrames	NumMarkers	Units	OrigDataRate	OrigDataStartFrame	OrigNumFrames
100.000000	100.000000	4	53	mm	100.000000	588	673
Frame#	Time	RPSI			LPSI			L3			STRN			T10			C7			CLAV			RBAK			LBAK			LSHO			LUPA			LAEL			LAOL			LWTS			LWPS			LFRA			LIFD			LHPS			LHTS			RSHO			RUPA			RAEL			RAOL			RWTS			RWPS			RFRA			RIFD			RHTS			RHPS			RBHD			LFHD			RFHD			LBHD			LHIP			RHIP			RASI			LASI			LKNE			LTHI			LANK			LTIP			LTOE			LMT1			LMT5			LHEE			RKNE			RTHI			RANK			RTIP			RTOE			RMT1			RMT5			RHEE			
		X1	Y1	Z1	X2	Y2	Z2	X3	Y3	Z3	X4	Y4	Z4	X5	Y5	Z5	X6	Y6	Z6	X7	Y7	Z7	X8	Y8	Z8	X9	Y9	Z9	X10	Y10	Z10	X11	Y11	Z11	X12	Y12	Z12	X13	Y13	Z13	X14	Y14	Z14	X15	Y15	Z15	X16	Y16	Z16	X17	Y17	Z17	X18	Y18	Z18	X19	Y19	Z19	X20	Y20	Z20	X21	Y21	Z21	X22	Y22	Z22	X23	Y23	Z23	X24	Y24	Z24	X25	Y25	Z25	X26	Y26	Z26	X27	Y27	Z27	X28	Y28	Z28	X29	Y29	Z29	X30	Y30	Z30	X31	Y31	Z31	X32	Y32	Z32	X33	Y33	Z33	X34	Y34	Z34	X35	Y35	Z35	X36	Y36	Z36	X37	Y37	Z37	X38	Y38	Z38	X39	Y39	Z39	X40	Y40	Z40	X41	Y41	Z41	X42	Y42	Z42	X43	Y43	Z43	X44	Y44	Z44	X45	Y45	Z45	X46	Y46	Z46	X47	Y47	Z47	X48	Y48	Z48	X49	Y49	Z49	X50	Y50	Z50	X51	Y51	Z51	X52	Y52	Z52	X53	Y53	Z53	

589	5.88	1079.038818359375	961.2589721679688	1005.94482421875	1163.82373046875	955.4473266601562	891.5648803710938	1125.765991210938	1054.144653320312	962.6881103515625	1350.524169921875	1244.915893554688	1104.443969726562	1115.477172851562	1177.18994140625	941.714599609375	1164.660888671875	1446.637817382812	982.21484375	1322.853759765625	1358.587646484375	1079.846923828125	1057.562377929688	1327.9501953125	1026.704467773438	1199.656372070312	1396.707153320312	882.5533447265625	1331.091064453125	1411.92822265625	881.3241577148438	1384.787231445312	1291.362548828125	799.2720336914062	1424.309448242188	1075.151977539062	792.9567260742188	1321.578735351562	1059.608764648438	795.6429443359375	1458.39111328125	869.4364624023438	871.9208984375	1456.8935546875	856.4599609375	799.2788696289062	1445.494995117188	987.1990966796875	796.4678955078125	1457.569946289062	700.0590209960938	864.6792602539062	1458.695922851562	775.2077026367188	801.464599609375	1473.336547851562	778.5748291015625	870.6453857421875	1130.9609375	1416.224853515625	1156.244140625	1073.395629882812	1356.415405273438	1210.625732421875	1050.855102539062	1069.427856445312	1269.36572265625	1028.6201171875	1045.797973632812	1209.310546875	1193.365112304688	904.5990600585938	1301.3095703125	1116.849731445312	865.196044921875	1319.51123046875	1057.49853515625	1011.740112304688	1283.800048828125	1246.884643554688	767.376220703125	1347.468139648438	1231.331420898438	826.40771484375	1347.04248046875	1163.354736328125	794.6039428710938	1349.909912109375	1194.422973632812	1645.351806640625	1097.37255859375	1396.264770507812	1646.510498046875	1053.481689453125	1318.15283203125	1651.712158203125	1157.26513671875	1287.415649414062	1644.042236328125	946.5958251953125	1338.697509765625	843.4746704101562	883.3250122070312	1089.003662109375	860.8554077148438	1191.6171875	1209.600952148438	900.8170776367188	1200.399047851562	1371.010986328125	886.9922485351562	1002.464599609375	1330.093383789062	422.1478271484375	960.1100463867188	1357.224975585938	579.4195556640625	944.3811645507812	1229.428100585938	25.75658416748047	913.8419189453125	1311.952880859375	263.5552673339844	950.82568359375	1342.2578125	29.29486274719238	1121.638671875	1270.124755859375	36.818359375	1087.598022460938	1348.953491210938	29.66195297241211	1003.958679199219	1156.928100585938	30.81606292724609	910.5882568359375	1130.420043945312	463.0791625976562	1208.313720703125	1178.0048828125	707.3796997070312	1262.868041992188	1090.327270507812	37.45796966552734	1200.629760742188	1114.197509765625	319.8722534179688	1222.432373046875	1294.307739257812	35.53355407714844	1280.72607421875	1261.586059570312	39.65834426879883	1214.238891601562	1187.69140625	37.92796325683594	1291.831420898438	1060.370361328125	31.46073722839355	1126.253051757812	
590	5.89	1080.255126953125	960.7593994140625	1009.34619140625	1164.542602539062	955.1486206054688	894.6465454101562	1126.491455078125	1053.20458984375	965.936767578125	1351.701049804688	1244.675903320312	1105.59814453125	1115.669921875	1176.183715820312	944.7722778320312	1164.54052734375	1445.870727539062	984.3079223632812	1323.64013671875	1358.208618164062	1080.957641601562	1057.959106445312	1326.982788085938	1029.823120117188	1198.702392578125	1395.754638671875	884.6466674804688	1330.127563476562	1411.264770507812	882.0029907226562	1382.52392578125	1290.565063476562	799.1837158203125	1420.702758789062	1074.047119140625	792.1726684570312	1317.877807617188	1059.145141601562	796.4439697265625	1454.56396484375	867.9698486328125	870.39453125	1451.90966796875	855.0986328125	797.7442626953125	1441.329711914062	985.9388427734375	795.255126953125	1452.345947265625	698.6192016601562	863.0042724609375	1453.093383789062	773.8009643554688	799.8386840820312	1468.752685546875	776.9797973632812	868.7892456054688	1132.105590820312	1415.614624023438	1158.632080078125	1074.91650390625	1355.755004882812	1213.46435546875	1052.49609375	1068.634155273438	1272.08056640625	1029.8017578125	1045.595703125	1211.91650390625	1192.463256835938	901.3720092773438	1302.804809570312	1115.256591796875	863.0552978515625	1320.645385742188	1058.38037109375	1010.794311523438	1286.143310546875	1243.540649414062	762.7978515625	1347.917114257812	1229.1337890625	822.3142700195312	1348.093505859375	1160.598876953125	791.5676879882812	1350.626831054688	1194.6552734375	1644.806884765625	1098.885375976562	1396.468627929688	1646.018310546875	1054.674438476562	1318.5302734375	1651.23486328125	1158.614624023438	1287.419555664062	1643.511474609375	947.9821166992188	1339.723022460938	843.3723754882812	885.3946533203125	1090.65869140625	859.8116455078125	1194.329223632812	1211.403076171875	899.7298583984375	1203.174072265625	1372.261840820312	886.6688842773438	1004.662780761719	1331.206420898438	421.8216247558594	961.7315063476562	1358.4560546875	579.1555786132812	946.1974487304688	1229.378295898438	25.83732032775879	913.8865966796875	1312.505859375	263.2038269042969	951.7593994140625	1342.281860351562	29.25621032714844	1121.681030273438	1270.14306640625	36.80660247802734	1087.641235351562	1348.936401367188	29.68106460571289	1003.978576660156	1156.83056640625	30.88327217102051	910.675048828125	1129.749389648438	461.7792663574219	1208.264526367188	1176.923828125	706.2617797851562	1262.921630859375	1090.146484375	36.72918701171875	1200.136108398438	1113.653930664062	318.6095886230469	1222.174926757812	1294.363891601562	35.50859451293945	1280.660278320312	1261.673950195312	39.7635498046875	1214.276611328125	1187.451538085938	37.87733459472656	1291.790893554688	1060.475830078125	30.14554405212402	1125.8837890625	
591	5.9	1081.399780273438	960.2606811523438	1012.665954589844	1165.249145507812	954.856689453125	897.692626953125	1127.16943359375	1052.261596679688	969.1666259765625	1352.830810546875	1244.411499023438	1106.749267578125	1115.807006835938	1175.185424804688	947.8169555664062	1164.374877929688	1445.10791015625	986.415771484375	1324.391967773438	1357.809814453125	1082.053955078125	1058.317993164062	1326.011596679688	1032.99853515625	1197.68408203125	1394.77880859375	886.7659301757812	1329.0849609375	1410.587524414062	882.6906127929688	1380.174560546875	1289.758911132812	799.1301879882812	1417.088256835938	1072.9765625	791.4151611328125	1314.217163085938	1058.664306640625	797.2833251953125	1450.844848632812	866.5746459960938	868.9452514648438	1447.03515625	853.7974243164062	796.3074951171875	1437.2060546875	984.7254638671875	794.0950317382812	1447.345947265625	697.2713012695312	861.4800415039062	1447.634521484375	772.4597778320312	798.3408203125	1464.310913085938	775.4675903320312	867.04443359375	1133.267456054688	1414.973876953125	1161.059814453125	1076.526733398438	1355.068115234375	1216.388305664062	1054.230346679688	1067.84375	1274.92578125	1031.084838867188	1045.339477539062	1214.66845703125	1191.5107421875	898.0590209960938	1304.3994140625	1113.590454101562	860.9496459960938	1321.91015625	1059.314086914062	1009.863647460938	1288.61572265625	1239.851928710938	757.9400024414062	1348.240112304688	1226.761352539062	817.9948120117188	1349.094482421875	1157.5556640625	788.3408813476562	1351.226684570312	1194.82666015625	1644.240356445312	1100.415283203125	1396.606323242188	1645.549072265625	1055.85546875	1318.86376953125	1650.762817382812	1159.967163085938	1287.334106445312	1642.991088867188	949.3656616210938	1340.73974609375	843.279052734375	887.5604858398438	1092.14697265625	858.7860107421875	1196.96142578125	1213.033569335938	898.6072998046875	1205.937377929688	1373.42626953125	886.324462890625	1006.936767578125	1332.219848632812	421.502685546875	963.3491821289062	1359.6044921875	578.8804321289062	948.0203857421875	1229.323974609375	25.92179107666016	913.9314575195312	1313.000732421875	262.876220703125	952.7057495117188	1342.300659179688	29.22414016723633	1121.7216796875	1270.152465820312	36.79726409912109	1087.681030273438	1348.90966796875	29.70700645446777	1004.007751464844	1156.722534179688	30.96992301940918	910.7675170898438	1129.059814453125	460.5205078125	1208.20458984375	1175.82421875	705.1853637695312	1262.964599609375	1090.03369140625	36.05978393554688	1199.669311523438	1113.158569335938	317.37744140625	1221.957153320312	1294.497192382812	35.46612930297852	1280.633422851562	1261.827026367188	39.84405899047852	1214.338012695312	1187.307861328125	37.83062362670898	1291.780151367188	1060.652954101562	28.95206260681152	1125.547729492188	
592	5.91	1082.47216796875	959.7728881835938	1015.888793945312	1165.953002929688	954.5789184570312	900.6802978515625	1127.797973632812	1051.332153320312	972.3602294921875	1353.908569335938	1244.136108398438	1107.901123046875	1115.89013671875	1174.213623046875	950.8471069335938	1164.164794921875	1444.369018554688	988.5409545898438	1325.107421875	1357.404052734375	1083.134033203125	1058.639526367188	1325.05908203125	1036.219482421875	1196.611083984375	1393.804565429688	888.8987426757812	1327.972045898438	1409.90771484375	883.3919067382812	1377.753540039062	1288.949096679688	799.126220703125	1413.479736328125	1071.942749023438	790.7012939453125	1310.610717773438	1058.16845703125	798.1642456054688	1447.235717773438	865.2501220703125	867.5745849609375	1442.284790039062	852.5599975585938	794.9720458984375	1433.14111328125	983.56396484375	793.0009155273438	1442.57568359375	696.0100708007812	860.0941772460938	1442.341186523438	771.1884765625	796.9663696289062	1460.018676757812	774.0371704101562	865.4083862304688	1134.443481445312	1414.319580078125	1163.52099609375	1078.222900390625	1354.371215820312	1219.390014648438	1056.063232421875	1067.073852539062	1277.891235351562	1032.469116210938	1045.068969726562	1217.56787109375	1190.517211914062	894.6746826171875	1306.08154296875	1111.869140625	858.9067993164062	1323.30712890625	1060.307983398438	1008.970153808594	1291.213745117188	1235.80224609375	752.8331298828125	1348.421020507812	1224.194091796875	813.4553833007812	1350.002197265625	1154.235229492188	784.973388671875	1351.719360351562	1194.952392578125	1643.675659179688	1101.966064453125	1396.688354492188	1645.116333007812	1057.02880859375	1319.160034179688	1650.30712890625	1161.32275390625	1287.17529296875	1642.501220703125	950.748046875	1341.7470703125	843.19482421875	889.8172607421875	1093.464721679688	857.7968139648438	1199.501098632812	1214.4912109375	897.484619140625	1208.6845703125	1374.514038085938	885.9716796875	1009.281066894531	1333.135864257812	421.197021484375	964.9620971679688	1360.661376953125	578.5940551757812	949.8480834960938	1229.262084960938	26.01589012145996	913.9861450195312	1313.427978515625	262.5680541992188	953.6564331054688	1342.317260742188	29.20105934143066	1121.766357421875	1270.156616210938	36.79117584228516	1087.719848632812	1348.873413085938	29.73783874511719	1004.045532226562	1156.611572265625	31.08644485473633	910.87060546875	1128.361572265625	459.3343811035156	1208.157958984375	1174.716064453125	704.1807250976562	1263.020385742188	1089.9580078125	35.45573043823242	1199.243530273438	1112.68798828125	316.2154846191406	1221.771606445312	1294.664184570312	35.41009902954102	1280.619995117188	1262.007934570312	39.89644622802734	1214.398071289062	1187.228393554688	37.78779602050781	1291.777954101562	1060.85400390625	27.90589714050293	1125.252685546875	
